<svg width="26" height="26" viewBox="0 0 26 26" fill="none" xmlns="http://www.w3.org/2000/svg">
<path fill-rule="evenodd" clip-rule="evenodd" d="M20.9308 18.1981C20.7443 18.2012 20.5591 18.2324 20.3809 18.2909C20.4633 18.4436 20.5072 18.616 20.5084 18.7917C20.5084 19.3653 20.0671 19.8304 19.5227 19.8304C19.356 19.8291 19.1923 19.7829 19.0474 19.6961C18.8129 20.553 19.1251 21.4719 19.8225 21.9773C20.5198 22.4827 21.4458 22.4612 22.1213 21.924C22.7968 21.3867 23.0703 20.4542 22.8002 19.609C22.5302 18.7637 21.7772 18.1954 20.9308 18.1981ZM25.9387 20.0048C24.9842 18.0422 23.0945 16.7144 20.9307 16.7144C18.7669 16.7144 16.8766 18.0432 15.9226 20.005C15.841 20.1752 15.841 20.3762 15.9226 20.5464C16.8772 22.509 18.7669 23.8369 20.9307 23.8369C23.0945 23.8369 24.9847 22.5081 25.9387 20.5462C26.0204 20.376 26.0204 20.175 25.9387 20.0048ZM20.9307 22.9465C19.1943 22.9465 17.6024 21.9263 16.7427 20.2756C17.6024 18.6248 19.1941 17.6046 20.9307 17.6046C22.6673 17.6046 24.259 18.6248 25.1187 20.2756C24.2592 21.9263 22.6673 22.9465 20.9307 22.9465Z" fill="white"/>
<path fill-rule="evenodd" clip-rule="evenodd" d="M0 2.22857C0 0.997765 0.946852 0 2.11485 0H22.5584C23.7264 0 24.6733 0.997765 24.6733 2.22857V14.1143H23.2634V9.28572L15.8614 9.28572V15.6H17.9762V17.0857L15.8614 17.0857H14.4515H9.51684V24.5143H16.2139V26H2.11485C0.946852 26 0 25.0022 0 23.7714V2.22857ZM2.11485 1.48571C1.72552 1.48571 1.4099 1.8183 1.4099 2.22857V7.8H8.10694H9.51684H14.4515H15.8614L23.2634 7.8V2.22857C23.2634 1.8183 22.9478 1.48571 22.5584 1.48571H2.11485ZM8.10694 24.5143V17.0857H1.4099V23.7714C1.4099 24.1817 1.72552 24.5143 2.11485 24.5143H8.10694ZM1.4099 15.6H8.10694V9.28572L1.4099 9.28571L1.4099 15.6ZM9.51684 9.28572V15.6L14.4515 15.6V9.28572L9.51684 9.28572Z" fill="white"/>
</svg>
