<svg width="248" height="192" viewBox="0 0 248 192" fill="none" xmlns="http://www.w3.org/2000/svg">
<path fill-rule="evenodd" clip-rule="evenodd" d="M222.246 10.7226C210.769 3.49112 198.168 -0.0407351 183.985 0.000354378C166.428 0.0511084 148.626 5.04029 113.386 19.7895C87.3835 30.6714 68.301 37.3131 51.0763 41.4748C29.622 46.6589 17.4737 54.072 8.85186 67.2436C-9.94248 95.9571 1.73742 134.674 38.6987 166.177C58.8551 183.356 77.4022 191.601 95.6854 191.51C108.839 191.443 118.851 188.349 137.487 178.594C153.503 170.209 158.434 168.343 165.834 167.862C171.816 167.474 177.739 169.734 184.558 175.009C190.458 179.572 194.608 181.037 199.021 180.118C216.564 176.463 236.24 142.443 244.61 101.298C247.917 85.0376 248.352 55.9082 245.454 44.7933C241.448 29.4337 233.559 17.8515 222.246 10.7226Z" fill="white"/>
<circle cx="81.1079" cy="53.7925" r="2.05323" fill="#E40030"/>
<circle cx="89.3218" cy="53.7925" r="2.05323" fill="#FFB800"/>
<circle cx="97.5347" cy="53.7925" r="2.05323" fill="#008748"/>
<rect x="69.3691" y="45.5396" width="132" height="102.228" rx="9.79278" stroke="#151515" stroke-width="3"/>
<line x1="67.8691" y1="60.5054" x2="202.869" y2="60.5054" stroke="#151515" stroke-width="3"/>
<rect opacity="0.8" x="91.4541" y="75.3247" width="88.3422" height="22.6388" rx="2.07985" stroke="#151515" stroke-width="2"/>
<rect opacity="0.8" x="91.4541" y="104.07" width="25.7186" height="20.5856" rx="2.07985" stroke="#151515" stroke-width="2"/>
<rect opacity="0.8" x="122.767" y="104.07" width="25.7186" height="20.5856" rx="2.07985" stroke="#151515" stroke-width="2"/>
<rect opacity="0.8" x="154.078" y="104.07" width="25.7186" height="20.5856" rx="2.07985" stroke="#151515" stroke-width="2"/>
<line x1="114.066" y1="82.0243" x2="157.698" y2="82.0243" stroke="#151515" stroke-width="1.02662"/>
<line x1="120.227" y1="86.1308" x2="151.538" y2="86.1308" stroke="#151515" stroke-width="1.02662"/>
<line x1="124.846" y1="90.2371" x2="146.918" y2="90.2371" stroke="#151515" stroke-width="1.02662"/>
<circle cx="180.54" cy="76.1211" r="7.19914" fill="white" stroke="#F36633" stroke-width="2.54087"/>
<circle opacity="0.5" cx="180.54" cy="76.1216" r="3.81131" fill="#F36633"/>
<circle cx="93.2772" cy="93.0606" r="7.19914" fill="white" stroke="#F36633" stroke-width="2.54087"/>
<circle opacity="0.5" cx="93.2771" cy="93.0608" r="3.81131" fill="#F36633"/>
<path fill-rule="evenodd" clip-rule="evenodd" d="M172.419 35.0396C169.354 35.0396 166.869 37.5245 166.869 40.5898V59.5473C166.869 62.6126 169.354 65.0975 172.419 65.0975H179.434V75.0611C179.434 76.207 180.861 76.7336 181.605 75.8625L190.753 65.1616C190.771 65.1405 190.788 65.1191 190.804 65.0975H229.319C232.384 65.0975 234.869 62.6126 234.869 59.5473V40.5898C234.869 37.5245 232.384 35.0396 229.319 35.0396H172.419Z" fill="#FAFAFA"/>
<path d="M179.434 65.0975H180.434V64.0975H179.434V65.0975ZM181.605 75.8625L182.365 76.5123H182.365L181.605 75.8625ZM190.753 65.1616L191.513 65.8113L191.513 65.8113L190.753 65.1616ZM190.804 65.0975V64.0975H190.305L190.005 64.4961L190.804 65.0975ZM167.869 40.5898C167.869 38.0768 169.906 36.0396 172.419 36.0396V34.0396C168.802 34.0396 165.869 36.9722 165.869 40.5898H167.869ZM167.869 59.5473V40.5898H165.869V59.5473H167.869ZM172.419 64.0975C169.906 64.0975 167.869 62.0603 167.869 59.5473H165.869C165.869 63.1649 168.802 66.0975 172.419 66.0975V64.0975ZM179.434 64.0975H172.419V66.0975H179.434V64.0975ZM178.434 65.0975V75.0611H180.434V65.0975H178.434ZM178.434 75.0611C178.434 77.1361 181.017 78.0895 182.365 76.5123L180.845 75.2128C180.799 75.2666 180.758 75.2843 180.726 75.2917C180.688 75.3006 180.638 75.2991 180.587 75.28C180.535 75.261 180.497 75.23 180.473 75.1983C180.454 75.1719 180.434 75.1319 180.434 75.0611H178.434ZM182.365 76.5123L191.513 65.8113L189.993 64.5118L180.845 75.2128L182.365 76.5123ZM191.513 65.8113C191.544 65.7747 191.574 65.7372 191.603 65.6989L190.005 64.4961C190.002 64.5011 189.997 64.5063 189.993 64.5118L191.513 65.8113ZM229.319 64.0975H190.804V66.0975H229.319V64.0975ZM233.869 59.5473C233.869 62.0603 231.832 64.0975 229.319 64.0975V66.0975C232.936 66.0975 235.869 63.1649 235.869 59.5473H233.869ZM233.869 40.5898V59.5473H235.869V40.5898H233.869ZM229.319 36.0396C231.832 36.0396 233.869 38.0768 233.869 40.5898H235.869C235.869 36.9722 232.936 34.0396 229.319 34.0396V36.0396ZM172.419 36.0396H229.319V34.0396H172.419V36.0396Z" fill="#151515"/>
<mask id="path-20-inside-1_5390_39531" fill="white">
<path fill-rule="evenodd" clip-rule="evenodd" d="M85.7335 99.7772C82.6816 109.214 73.8224 116.04 63.3691 116.04C50.3904 116.04 39.8691 105.518 39.8691 92.5396C39.8691 79.5609 50.3904 69.0396 63.3691 69.0396C74.9193 69.0396 84.5233 77.3722 86.4975 88.3541L93.7582 92.5461C94.7582 93.1234 94.7582 94.5668 93.7582 95.1441L85.7335 99.7772Z"/>
</mask>
<path fill-rule="evenodd" clip-rule="evenodd" d="M85.7335 99.7772C82.6816 109.214 73.8224 116.04 63.3691 116.04C50.3904 116.04 39.8691 105.518 39.8691 92.5396C39.8691 79.5609 50.3904 69.0396 63.3691 69.0396C74.9193 69.0396 84.5233 77.3722 86.4975 88.3541L93.7582 92.5461C94.7582 93.1234 94.7582 94.5668 93.7582 95.1441L85.7335 99.7772Z" fill="#FAFAFA"/>
<path d="M85.7335 99.7772L84.7335 98.0452L84.0672 98.4298L83.8305 99.1618L85.7335 99.7772ZM86.4975 88.3541L84.5291 88.708L84.6934 89.6219L85.4975 90.0861L86.4975 88.3541ZM93.7582 92.5461L92.7582 94.2781H92.7583L93.7582 92.5461ZM93.7582 95.1441L94.7582 96.8762L93.7582 95.1441ZM83.8305 99.1618C81.0377 107.798 72.9297 114.04 63.3691 114.04V118.04C74.7151 118.04 84.3255 110.631 87.6364 100.393L83.8305 99.1618ZM63.3691 114.04C51.495 114.04 41.8691 104.414 41.8691 92.5396H37.8691C37.8691 106.623 49.2859 118.04 63.3691 118.04V114.04ZM41.8691 92.5396C41.8691 80.6654 51.495 71.0396 63.3691 71.0396V67.0396C49.2859 67.0396 37.8691 78.4563 37.8691 92.5396H41.8691ZM63.3691 71.0396C73.9342 71.0396 82.7231 78.662 84.5291 88.708L88.466 88.0002C86.3235 76.0824 75.9044 67.0396 63.3691 67.0396V71.0396ZM85.4975 90.0861L92.7582 94.2781L94.7582 90.814L87.4975 86.622L85.4975 90.0861ZM92.7583 94.2781C92.4249 94.0857 92.4249 93.6045 92.7582 93.4121L94.7582 96.8762C97.0916 95.529 97.0916 92.1612 94.7582 90.814L92.7583 94.2781ZM92.7582 93.4121L84.7335 98.0452L86.7335 101.509L94.7582 96.8762L92.7582 93.4121Z" fill="#151515" mask="url(#path-20-inside-1_5390_39531)"/>
<line x1="174.869" y1="45.5262" x2="225.869" y2="45.5262" stroke="#151515" stroke-width="1.02662"/>
<line x1="174.869" y1="49.6327" x2="206.181" y2="49.6327" stroke="#151515" stroke-width="1.02662"/>
<line x1="174.869" y1="53.5262" x2="224.869" y2="53.5262" stroke="#151515" stroke-width="1.02662"/>
<path fill-rule="evenodd" clip-rule="evenodd" d="M65.4486 80.2586C64.6503 80.6283 64.1374 81.6413 63.6954 83.722C63.5122 84.5842 63.0952 85.7731 62.7687 86.3644C62.0059 87.7454 61.1234 88.3199 59.7642 88.3199C58.7647 88.3199 58.7288 88.2997 58.7288 87.7348C58.7288 87.4129 58.6198 87.0367 58.4867 86.8988C58.1487 86.5487 52.4492 86.5487 52.1112 86.8988C51.9307 87.0858 51.8691 89.3678 51.8691 95.8782C51.8691 104.294 51.8831 104.615 52.2593 104.823C52.474 104.942 53.8748 105.04 55.3722 105.04C58.3852 105.04 58.7288 104.91 58.7288 103.771V103.159H65.7966C73.6257 103.159 73.9649 103.11 74.5718 101.894C74.8078 101.421 74.8689 100.97 74.779 100.362C74.7087 99.8887 74.6512 99.2661 74.6512 98.9787C74.6512 98.6913 74.7087 98.0687 74.779 97.5951C74.8653 97.012 74.8088 96.5383 74.6042 96.1282C74.3434 95.6059 74.3409 95.4674 74.5855 95.1206C74.7414 94.8997 74.8691 94.403 74.8691 94.0169C74.8691 93.6309 74.7414 93.0593 74.5855 92.7469C74.3418 92.2587 74.3418 92.122 74.5855 91.7767C74.9571 91.2505 74.9466 90.1265 74.5631 89.358C74.0413 88.313 73.3756 88.1109 70.4548 88.1109H67.836L68.345 86.8133C68.642 86.0561 68.899 84.8997 68.962 84.0362C69.0528 82.7935 69.0009 82.4162 68.638 81.6793C67.9344 80.2506 66.6761 79.6901 65.4486 80.2586ZM66.7183 81.792C67.8077 82.5454 67.5307 85.1282 66.0605 87.9262C65.1779 89.6063 65.2727 89.6586 69.4218 89.7829C72.4562 89.8738 72.9382 89.9348 73.1316 90.2531C73.2932 90.519 73.2934 90.7188 73.1322 90.9846C72.9575 91.2728 72.534 91.3725 71.1367 91.4549C69.7393 91.5372 69.3159 91.6369 69.1411 91.9251C68.9801 92.1909 68.9801 92.3907 69.1411 92.6566C69.3159 92.9448 69.7393 93.0445 71.1367 93.1268C72.534 93.2092 72.9575 93.3089 73.1322 93.5971C73.5247 94.2445 73.0459 94.6861 71.8739 94.7574C71.1074 94.804 70.7842 94.9227 70.6345 95.2126C70.2145 96.0254 70.6587 96.3899 72.226 96.5188C73.0441 96.5861 73.4655 97.1224 73.1324 97.6725C72.9783 97.9268 72.595 98.0574 71.8739 98.1013C71.1074 98.1479 70.7842 98.2666 70.6345 98.5565C70.2145 99.3693 70.6587 99.7338 72.226 99.8627C73.0447 99.93 73.4659 100.467 73.1312 101.016C72.9273 101.352 72.3176 101.387 65.8186 101.437L58.7288 101.492V95.742V89.9919H59.8756C62.5994 89.9919 64.5127 87.8806 65.2812 84.0266C65.4629 83.1155 65.7565 82.2041 65.9338 82.0012C66.2899 81.5934 66.392 81.5663 66.7183 81.792ZM57.1148 95.8438V103.368H55.299H53.4832V95.8438V88.3199H55.299H57.1148V95.8438ZM55.3393 100.065C55.0262 100.39 55.0262 101.747 55.3393 102.072C55.9682 102.723 56.7112 102.097 56.7112 100.915C56.7112 100.248 56.3933 99.8147 55.9042 99.8147C55.7267 99.8147 55.4725 99.9275 55.3393 100.065Z" fill="#151515"/>
</svg>
