<svg width="19" height="19" viewBox="0 0 19 19" fill="none" xmlns="http://www.w3.org/2000/svg">
<path fill-rule="evenodd" clip-rule="evenodd" d="M9.5 4.4H8C7.17157 4.4 6.5 5.0268 6.5 5.8C6.5 6.5732 7.17157 7.2 8 7.2H9.5V4.4ZM8 3C6.34315 3 5 4.2536 5 5.8C5 7.3464 6.34315 8.6 8 8.6H11V3H8Z" fill="black"/>
<path fill-rule="evenodd" clip-rule="evenodd" d="M9.5 8.59922H8C7.17157 8.59922 6.5 9.22602 6.5 9.99922C6.5 10.7724 7.17157 11.3992 8 11.3992H9.5V8.59922ZM8 7.19922C6.34315 7.19922 5 8.45282 5 9.99922C5 11.5456 6.34315 12.7992 8 12.7992H11V7.19922H8Z" fill="black"/>
<path fill-rule="evenodd" clip-rule="evenodd" d="M11 9.99922C11 10.7724 11.6716 11.3992 12.5 11.3992C13.3284 11.3992 14 10.7724 14 9.99922C14 9.22602 13.3284 8.59922 12.5 8.59922C11.6716 8.59922 11 9.22602 11 9.99922ZM12.5 7.19922C10.8431 7.19922 9.5 8.45282 9.5 9.99922C9.5 11.5456 10.8431 12.7992 12.5 12.7992C14.1569 12.7992 15.5 11.5456 15.5 9.99922C15.5 8.45282 14.1569 7.19922 12.5 7.19922Z" fill="black"/>
<path fill-rule="evenodd" clip-rule="evenodd" d="M9.5 12.8004H8C7.17157 12.8004 6.5 13.4272 6.5 14.2004C6.5 14.9736 7.17157 15.6004 8 15.6004C8.82843 15.6004 9.5 14.9736 9.5 14.2004V12.8004ZM8 11.4004C6.34315 11.4004 5 12.654 5 14.2004C5 15.7468 6.34315 17.0004 8 17.0004C9.65685 17.0004 11 15.7468 11 14.2004V11.4004H8Z" fill="black"/>
<path fill-rule="evenodd" clip-rule="evenodd" d="M12.5 4.4H11V7.2H12.5C13.3284 7.2 14 6.5732 14 5.8C14 5.0268 13.3284 4.4 12.5 4.4ZM9.5 3V8.6H12.5C14.1569 8.6 15.5 7.3464 15.5 5.8C15.5 4.2536 14.1569 3 12.5 3H9.5Z" fill="black"/>
</svg>
