<svg width="15" height="15" viewBox="0 0 15 15" fill="none" xmlns="http://www.w3.org/2000/svg">
<path fill-rule="evenodd" clip-rule="evenodd" d="M14.625 13.7202L10.0446 9.19643C10.7798 8.29167 11.2321 7.10417 11.2321 5.80357C11.2321 2.80655 8.8006 0.375 5.80357 0.375C2.80655 0.375 0.375 2.80655 0.375 5.80357C0.375 8.8006 2.80655 11.2321 5.80357 11.2321C6.99107 11.2321 8.12202 10.8363 9.02679 10.1577L13.6637 14.7381L14.625 13.7202ZM1.7887 5.74691C1.7887 3.54156 3.59822 1.73203 5.80358 1.73203C8.00893 1.73203 9.81846 3.54156 9.81846 5.74691C9.81846 7.95227 8.00893 9.76179 5.80358 9.76179C3.59822 9.81834 1.7887 8.00882 1.7887 5.74691Z" fill="#151515"/>
</svg>
